<?xml version="1.0" standalone="no"?>
<!DOCTYPE svg PUBLIC "-//W3C//DTD SVG 20010904//EN"
 "http://www.w3.org/TR/2001/REC-SVG-20010904/DTD/svg10.dtd">
<svg version="1.0" xmlns="http://www.w3.org/2000/svg"
 width="460.000000pt" height="460.000000pt" viewBox="0 0 460.000000 460.000000"
 preserveAspectRatio="xMidYMid meet">
<metadata>
Created by potrace 1.14, written by Peter Selinger 2001-2017
</metadata>
<g transform="translate(0.000000,460.000000) scale(0.100000,-0.100000)"
fill="#000000" stroke="none">
<path d="M1110 4590 c-324 -24 -562 -101 -715 -230 -76 -64 -181 -184 -224
-256 -45 -72 -98 -215 -121 -323 -41 -189 -43 -264 -46 -1431 l-2 -1125 24
-205 c40 -353 102 -505 278 -689 170 -176 339 -255 654 -303 147 -23 150 -23
1357 -23 1114 0 1219 1 1325 18 320 50 512 142 679 323 160 175 227 353 263
704 8 78 13 460 15 1180 4 1114 0 1264 -42 1537 -30 186 -116 361 -249 501
-168 177 -368 269 -668 309 -119 15 -251 17 -1278 19 -630 1 -1192 -2 -1250
-6z m2485 -170 c178 -15 241 -31 374 -97 101 -50 126 -67 206 -147 82 -81 97
-103 148 -206 66 -134 83 -198 97 -375 13 -152 9 -2636 -4 -2672 -8 -23 -11
-23 -177 -23 l-169 0 26 39 c36 55 35 83 -14 435 -23 165 -42 320 -42 346 0
26 18 136 40 245 43 214 48 289 25 378 -8 31 -77 182 -154 335 -151 302 -168
326 -260 357 -64 22 -128 19 -186 -9 -29 -13 -130 -93 -238 -187 -104 -90
-197 -170 -207 -177 -16 -11 -45 -12 -169 -1 -83 7 -151 17 -151 22 0 23 45
68 79 78 54 16 91 79 84 143 -3 25 -9 49 -14 51 -4 3 -20 -17 -35 -45 -15 -27
-30 -50 -34 -50 -4 0 -28 12 -54 26 l-46 26 30 52 c16 29 27 56 24 59 -3 3
-26 -4 -50 -16 -63 -30 -93 -85 -82 -149 8 -46 7 -48 -94 -222 -56 -97 -106
-176 -110 -176 -10 0 -928 209 -945 215 -8 3 83 139 235 352 136 191 269 378
296 416 26 37 51 67 57 67 18 0 49 41 49 66 0 26 0 26 45 -14 27 -23 63 -44
90 -51 59 -15 151 -13 198 3 20 8 40 10 43 5 8 -14 338 -11 352 3 9 9 18 9 39
-1 17 -8 65 -11 133 -10 59 1 112 -1 119 -5 8 -6 0 -21 -28 -51 -38 -41 -56
-84 -63 -150 -3 -26 -12 -34 -70 -63 -38 -17 -68 -36 -68 -40 0 -5 9 -17 20
-27 19 -17 22 -17 82 0 34 9 67 19 74 22 7 2 17 -10 23 -29 13 -38 70 -98 116
-120 108 -53 244 -7 303 102 22 41 23 53 19 131 -6 98 -33 168 -78 201 l-28
21 32 16 c27 14 36 14 57 4 37 -19 200 -17 228 3 19 13 22 24 22 90 0 67 -3
77 -25 98 -23 22 -25 30 -25 117 0 82 3 95 22 116 16 17 23 39 26 83 4 53 1
65 -22 98 -14 21 -26 45 -26 53 0 9 -9 24 -21 35 -18 16 -37 19 -124 19 -113
0 -145 -14 -145 -61 0 -32 -12 -36 -56 -18 -52 22 -177 22 -228 1 -47 -21 -66
-21 -66 -2 0 30 -24 64 -53 75 -38 13 -167 13 -201 0 -15 -5 -31 -21 -38 -35
-11 -25 -12 -25 -137 -25 -96 0 -132 -4 -148 -15 -18 -13 -26 -13 -60 -1 -66
23 -134 28 -192 12 -47 -12 -58 -12 -88 0 -19 8 -39 12 -45 8 -6 -4 -63 -6
-127 -5 -104 2 -120 -1 -143 -18 -25 -20 -25 -20 -67 1 -53 26 -178 29 -232 6
-30 -13 -40 -13 -60 -3 -18 10 -94 13 -306 13 -266 0 -284 -1 -308 -20 -32
-25 -32 -29 7 -337 25 -199 36 -258 51 -277 l18 -24 233 0 c187 0 236 3 252
15 19 13 25 12 60 -6 36 -18 51 -19 177 -13 75 4 137 4 137 -1 0 -4 -13 -24
-29 -44 -15 -20 -137 -189 -271 -376 -133 -187 -246 -344 -250 -349 -13 -13
-112 22 -785 277 -93 35 -205 73 -247 83 l-78 18 0 190 c0 213 13 386 35 485
9 36 41 118 72 181 51 103 66 124 148 205 164 162 330 228 625 248 132 9 2430
6 2545 -3z m-3310 -1503 c87 -31 693 -271 743 -294 39 -18 58 -34 70 -59 15
-32 15 -36 -5 -62 l-20 -27 -244 1 c-134 1 -337 4 -451 8 l-208 7 -1 -258 c-1
-142 -4 -247 -6 -233 -3 14 -2 233 2 486 l7 461 37 -8 c20 -4 54 -14 76 -22z
m3317 -539 l143 -213 0 -80 c0 -44 -4 -165 -8 -270 l-8 -190 54 -322 c47 -283
57 -327 81 -363 l27 -41 -225 3 c-124 2 -226 4 -226 6 0 2 10 16 21 32 19 24
27 70 55 312 18 156 33 301 34 322 0 35 7 46 64 100 l64 61 11 199 c7 138 7
204 0 218 -9 18 -29 1 -199 -167 -158 -157 -190 -194 -199 -228 -19 -73 -93
-700 -89 -754 3 -30 12 -61 21 -71 9 -10 17 -20 17 -23 0 -2 -265 -4 -590 -4
-324 0 -590 0 -590 1 0 1 35 18 78 39 59 29 96 58 159 122 l83 83 147 0 c235
0 441 27 495 64 58 39 67 62 93 230 32 203 32 251 1 297 -23 34 -24 38 -14
129 13 126 6 276 -15 316 -24 46 -83 93 -162 130 -77 34 -236 88 -297 99 -21
4 -38 11 -38 15 0 15 29 32 47 26 10 -3 114 -19 231 -36 169 -24 220 -29 251
-20 21 5 103 50 182 100 79 49 147 90 151 90 4 0 72 -96 150 -212z m-1572
-529 c162 -76 263 -262 232 -430 -25 -138 -98 -236 -220 -296 -73 -36 -80 -38
-176 -38 -93 0 -107 3 -168 32 -327 155 -305 618 35 744 77 29 222 23 297 -12z
m-641 -735 c41 -59 131 -133 211 -172 l75 -37 -742 -4 -742 -3 -5 33 c-3 19
-8 76 -11 127 l-7 92 599 0 598 0 24 -36z m2970 -411 c-62 -165 -209 -334
-356 -411 -45 -24 -113 -54 -152 -67 -145 -49 -174 -50 -1551 -50 -1377 0
-1406 1 -1551 50 -237 81 -425 257 -508 478 l-11 27 2070 0 2070 0 -11 -27z"/>
<path d="M2203 665 c-19 -8 -35 -10 -38 -5 -8 13 -605 13 -620 0 -9 -7 -21 -7
-39 0 -15 5 -65 10 -111 10 -73 0 -86 -3 -95 -19 -6 -12 -10 -94 -10 -199 0
-159 2 -181 18 -195 16 -15 64 -16 432 -16 244 0 420 4 426 10 7 6 21 6 35 0
13 -5 162 -9 331 -9 245 0 309 2 318 13 9 11 15 11 38 -1 68 -35 180 -5 203
54 15 39 6 137 -15 160 -15 17 -15 20 -1 25 18 8 21 97 4 129 -13 24 -83 57
-122 58 -15 0 -43 -6 -62 -14 -20 -9 -37 -11 -40 -6 -8 13 -236 12 -251 -1 -8
-7 -14 -7 -19 1 -3 5 -42 10 -91 10 -70 0 -86 -3 -95 -18 -11 -17 -14 -17 -57
5 -52 26 -92 29 -139 8z"/>
<path d="M3143 659 c-10 -10 -13 -65 -13 -206 0 -187 1 -193 22 -204 31 -17
190 -6 222 15 37 23 49 82 44 218 -3 117 -3 118 -35 150 -32 31 -36 32 -130
36 -71 3 -101 0 -110 -9z"/>
</g>
</svg>
