<?xml version="1.0" encoding="UTF-8"?>
<!DOCTYPE svg PUBLIC "-//W3C//DTD SVG 1.1//EN" "http://www.w3.org/Graphics/SVG/1.1/DTD/svg11.dtd">
<!-- Creator: CorelDRAW -->
<svg xmlns="http://www.w3.org/2000/svg" xml:space="preserve" width="484.802mm" height="155.76mm" version="1.1" style="shape-rendering:geometricPrecision; text-rendering:geometricPrecision; image-rendering:optimizeQuality; fill-rule:evenodd; clip-rule:evenodd"
viewBox="0 0 46801.62 19481.42"
 xmlns:xlink="http://www.w3.org/1999/xlink"
 xmlns:xodm="http://www.corel.com/coreldraw/odm/2003">
 <defs>
  <style type="text/css">
   <![CDATA[
    .fil0 {fill:black}
   ]]>
  </style>
 </defs>
 <g id="Слой_x0020_1">
  <metadata id="CorelCorpID_0Corel-Layer"/>
  <path class="fil0" d="M42646.53 4461.81c67.99,101.54 304.83,291.22 412.35,388 75.07,67.59 60.68,73.43 199.97,72.5 374.89,-2.52 698.01,16.31 1073.56,16.31 116.79,0 1814.33,-18.31 1881.84,8.38 34.89,13.79 127.58,106.59 127.58,144.88l0 11801.13c0,635.53 -22.38,1230.65 -16.58,1856.62 3.29,354.41 -245.92,254.99 -868.94,254.99 -14066,0 -28131.98,0 -42197.98,0 -124.89,0 -249.81,-0.3 -374.7,0.04l-2180.5 0.8c-148.79,-2.74 -237.57,-101.06 -237.57,-154.1l0 -13691.35c0,-167.8 130.35,-238.41 238.41,-238.41l3916.68 0c-3.21,-144.34 -116.08,-319.5 -119.2,-459.78l-1771.02 0c-381.84,0 -706.42,17.03 -1089.85,17.03 -318.98,0 -1055.65,-67.79 -1291.48,87.87 -144.28,95.22 -343.31,311.12 -343.31,491.12 0,1275.37 -15.73,13520.98 4.65,13669.67 23.92,174.59 -42.1,418.46 353.36,668.39 182.14,115.11 414.94,68.51 697.78,68.51 681.17,0 1362.33,0 2043.49,0 680.53,0 1332.52,17.03 2026.45,17.03 12567.44,0 25134.88,0 37702.31,0 517.17,0 997.25,-17.03 1498.56,-17.03l1873.89 0.7c313.43,1.59 595.32,-427.47 595.32,-545.63l-23.81 -13837.85c-35.57,-249.13 -124.05,-397.22 -340.61,-527.87 -175.14,-105.65 -139.06,-57.12 -366.94,-75.81 -537.26,-44.07 -1154.65,-17.41 -1720.85,-16.11 -159.23,0.36 -249.41,-17.43 -408.65,-17.08l-868.5 0.03c-165.1,-0.02 -277.83,17.03 -425.72,17.03zm-30056.28 11971.42l970.66 0 0 -3456.9c53.97,62.09 1083.12,2716.09 1189.6,2982.52l172.73 440.32c163.07,0 260.08,17.03 425.72,17.03l391.67 0 0 -6317.77 -987.69 0 -36.68 3323.28c-11.37,-32.26 -27.36,-69.29 -43.57,-109.69l-1102.05 -2780.58c-34.92,-87.32 -156.96,-360.46 -163,-433.01 -140.93,0 -213.42,-17.03 -357.6,-17.03l-459.79 0 0 6351.83zm19140.65 -6334.8l-153.26 0c0,342.75 -17.03,626.98 -17.03,970.65l0 5364.16 970.66 0 12.48 -3435.33c1.65,3.21 9.43,17.98 11.57,22.49l321.42 802.5c115.71,289.11 223.24,566.43 338.12,853.91l678.73 1722.37c151.99,0 236.81,17.03 391.67,17.03l425.72 0 0 -6334.8c-280.63,0 -596.81,-10.88 -871.33,14.17 -207.02,18.89 -43.6,94.96 -101.81,613.41 -34.68,308.83 -14.54,2402.17 -14.54,2812.28l-39.03 -97.2c-16.15,-42.23 -30.13,-75.68 -43.68,-109.58l-1104.43 -2795.22c-55.97,-139.8 -110.75,-316.09 -175.19,-437.86 -230.11,0 -398.42,17.03 -630.07,17.03zm-18748.98 -5517.42l41.61 -94.62c15.19,-39.7 22.86,-56.3 37.32,-98.91 54.58,-160.7 149.81,-490.31 228.41,-623.04 103.1,-174.11 318.27,-767.54 409.6,-1003.82 44.22,-114.42 42.17,-83.99 161.32,-128.16 142.22,-52.72 259.29,-104.59 405.28,-156.67 284.51,-101.51 549.8,-206.98 838.59,-302.36l1711.56 -553.31c288.26,-88.4 579.64,-171.38 868.33,-255.59l669.33 -182.12c88.62,-22.92 132.87,-56.1 231.2,-58.29 -45.64,62.3 -268.77,119.35 -346.89,146.95 -333.31,117.73 -1099.08,426.73 -1397.79,628.71 -130.46,88.23 -41.38,216.9 39.04,316.93 224.3,279 510.11,513.73 816.91,698.66 64.12,38.65 319.8,160.42 336.38,216.28l16.97 162.4c76.23,506.65 166.75,1004.96 290.14,1498.13 36.14,144.45 72.61,275.23 105.4,405.48 113.01,448.76 377.05,1136.73 671.53,1474.13 294.56,337.49 442.27,386.02 895.17,501.2 816.08,207.55 1638.1,408.82 2471.19,577.02 213.54,43.1 1520.69,338.98 1704.5,338.98 -51.88,-32.92 -144.23,-40.24 -201.09,-54.34 -67.71,-16.8 -138.37,-36.59 -217.87,-54.6l-3009.8 -787.67c-282.73,-81.36 -543.11,-163.88 -804.19,-268.65 -352.61,-141.49 -438.28,-147.77 -597.71,-492.15 -318.99,-689.05 -728.26,-2133.56 -914.96,-2882.52l-66.21 -210.59c-40.37,-123.7 101.24,-31.16 308.99,52.95 1181.12,478.21 2972.09,792.41 4224.22,935.58 323.22,36.95 660.62,100.75 989.13,100.75l0 -17.03c-170.21,0 -774.75,-132.66 -940.87,-166.04 -665.09,-133.63 -2028.73,-450.92 -2673.94,-680.78l-822.53 -284.35c-396.05,-151.75 -785.31,-317.14 -1165.49,-503.36l-527.64 -306.79c-90.45,-59.82 -456.96,-255.73 -493.84,-357.61 41.2,-21.8 56.06,-28.3 97.32,-55.93l691.38 -415.53c221.68,-133.87 114.39,-29.16 584.99,221.69l419.96 210.11c1176.31,548.55 3437.61,941.32 4678.95,1059.84 104.06,9.93 196.46,26.58 289.38,34.16 197.67,16.15 380.74,39.88 576.94,53.14 703.77,47.58 375.89,131.92 1063.58,-129.64l946.61 -364.62c101.46,-40.32 375.12,-163.84 476.65,-187.5 -108.45,-161.95 -1103.61,-873.39 -1316.67,-999.28 -125.35,-74.06 -231.98,-144.37 -359.3,-219.68 -127.49,-75.42 -252.19,-126.67 -377.36,-201.64 -177.78,-106.46 -395.18,-201.1 -588.35,-280.13 -292,-119.47 -595.04,-211.77 -918.27,-256.74l-544.17 -34.81c-119.78,0.62 -169.27,-16.14 -271.78,-17.94 -119.58,-2.09 -169.78,17.23 -272.35,18.51l-562.61 16.37c-67.98,3.27 -200.08,21.22 -260.5,29 -423.05,54.5 -832.04,116.24 -1248.02,199.45 -85.1,17.02 -175.83,43.99 -262.53,43.99l0 17.03c166.32,0 323.62,-36.79 478.29,-49.62 94.54,-7.84 140.94,-12.01 235.46,-19.97 62.23,-5.24 176.1,-11.85 249.7,-22.75 85.9,-12.74 158.59,-2.89 243.13,-12.32 247.22,-27.57 522.99,-31.57 768.8,-31.57 514.04,0 991.53,45.65 1430.73,118.92 581.73,97.04 1152.49,427.52 1646.28,703.73 175.25,98.03 323,188.38 493.77,289.56 279.45,165.54 551.39,357.49 813.28,549.05 48.94,35.8 78.49,49.5 94.58,109.76l-351.12 125.69c-140.04,46.25 -1045.93,385.18 -1096.35,385.18 -161.39,0 -314.18,-20.06 -469.51,-41.36 -1347.16,-184.63 -2691.38,-342.1 -4009.11,-673.87 -282.96,-71.24 -550.21,-129.35 -828.53,-210.25l-1370.23 -434.85c-64.46,-21.47 -145.25,-56.8 -202.36,-70.11 15.53,-58.14 6.68,-36.95 49.87,-69.33 20.92,-15.68 55.9,-36.32 83.02,-53.21 201.43,-125.52 654.77,-423.31 848.59,-479.69 657.63,-191.27 1509.4,-337.08 2188.15,-451.34 2591.33,-436.23 4623.41,-466.82 7215.15,-101.46 1863.76,262.74 3872.66,753.19 5675.78,1306.14 623.92,191.33 1337.29,419.98 1948.99,656.46 114.27,44.18 208.54,75.14 323.49,119.26 105.75,40.58 220.82,102.8 330.81,111.95 -3.05,-2.65 -8.09,-10.48 -9.57,-7.45l-790.58 -384.44c-965.36,-429.39 -1518.68,-679.23 -2603.51,-1040.71 -822.91,-274.22 -1660.36,-511.77 -2532.4,-686.09 -2558.43,-511.44 -3595.02,-486.74 -6188.65,-486.74 -338.75,0 -658.1,25.06 -971.57,50.17l-1192.12 85.06c-87.11,6.68 -167.56,14.25 -237.71,17.71 -160.22,7.93 -312.05,19.26 -471.67,39.2 -2009.66,251.09 -3898.53,792.5 -5779.68,1389.54l-1907.52 646.84c-158.19,52.05 -622.91,200.35 -717.62,304.12 -75.19,82.39 -139.19,217.74 -182.86,328.01 -95.09,240.1 -159.95,518.26 -214,807.74 -56.92,304.9 -126.36,597.88 -126.36,912.41zm23925.82 -1958.33c18.1,18.1 64.59,-27.03 18.97,-8.85 -0.39,0.15 -47.5,-19.66 -18.97,8.85zm-13010.19 1822.11l68.11 0c-31.83,-20.21 38.03,-19.15 -34.05,-14.05 -36.35,2.57 -15.22,2.09 -34.06,14.05zm289.49 3661.24l68.12 0c-31.84,-20.2 38.03,-19.15 -34.06,-14.05 -36.34,2.57 -15.21,2.09 -34.06,14.05zm-19838.84 4682.99c0,-287.57 -24.62,-1575.22 17.03,-1753.99 123.46,0 686.54,17.25 773.01,44.4 191.45,60.12 350.91,242.1 350.91,483.51l0 749.28c0,186.43 -167.55,377.85 -360.58,439.79l-780.37 37.02zm-953.62 3644.22l953.62 0 0 -2690.59 272.47 0 780.8 1994.94c80.87,218.94 172.61,468.08 275.01,661.59 129.91,0 189.89,17.03 323.55,17.03l340.58 0c133.66,0 193.64,-17.03 323.56,-17.03 -8.18,-98.25 -454.04,-1222.32 -525.45,-1398.84 -47.5,-117.42 -86.2,-224.09 -133.91,-342.9 -47.25,-117.68 -388.79,-976.07 -396.44,-1068.05 244.42,-163.67 436.98,-295.63 613.21,-544.76 280.04,-395.9 255.27,-844.75 255.27,-1328.43 0,-601.01 -235.76,-1034.15 -581.23,-1291.96 -170.68,-127.38 -389.68,-247.99 -640.11,-296.49 -339.14,-65.67 -1445.94,-46.34 -1860.91,-46.34l0 6351.83zm34177.3 -13742.44c18.1,18.1 64.59,-27.03 18.97,-8.85 -0.39,0.15 -47.5,-19.67 -18.97,8.85zm3695.3 2128.63c-116.61,159.15 -796.25,316.19 -1032.76,380.65 -505.7,137.83 -1270.18,147.25 -1811.09,147.25 -621.07,0 -1155.06,-59.25 -1729.6,-143.6 -151.33,-22.21 -183.69,-11.06 -290.28,-84.35 -80.41,-55.31 -151.22,-95.93 -227.95,-146.68l-471.36 -277.92c-719.33,-402.35 -1571.87,-763.58 -2349.03,-1022.71 -1294.14,-431.49 -2615.15,-704.54 -3973.23,-897.08 -111.47,-15.8 -211.44,-33.09 -341.55,-33.09 65.94,41.84 1202.5,283.34 1280.65,303.06 1418.01,357.87 2866.46,786.4 4207.43,1361.07l1096.57 504.15c256.95,119.07 547.2,302.11 809.58,382.45 613.85,187.96 1863.43,310.15 2499.64,310.15 507.47,0 1027.5,-53.23 1434.01,-149.69 314.92,-74.71 586.9,-181.36 874.76,-300.25 317.76,-131.24 244.26,-226.19 581.62,79.86 93.7,85 187.92,117.75 289.94,220.94 88.67,89.68 166.02,166.32 255.28,255.58 68.57,68.57 186.96,227.21 276.73,251.18 -7.53,90.39 0.12,17.89 -19.28,65.87 -128.4,317.63 -486.54,425.17 -787.47,523.77 -284.06,93.06 -612.85,135.11 -913.53,142.28 -81.97,1.96 -77.53,13.38 -152.85,17.44 -170.63,9.22 -513.1,15.34 -659.56,-4.73l-1452.13 -97.52c-116.9,-2.93 -245.98,-25.88 -358.2,-33.46 -1606.02,-108.55 -4383.87,-598.52 -6010.66,-1005.31 -409.3,-102.35 -819.77,-196.41 -1223.96,-325.68l-1129.14 -335.35c677.92,288.85 1374.71,518.61 2066.07,777.78 108.25,40.57 207.68,66.7 316.1,109.62 521.68,206.5 1747.82,549.58 2276.62,669.4 88.12,19.96 270.5,61.53 333.82,91.91 -76.61,114.42 -322.81,308.37 -445.29,406.16l-785.09 696.43c-194.23,180.56 -410.28,342.54 -595.72,528.2 -75.23,75.31 -207.2,158.79 -268.46,242.41 30.75,45.92 178.76,153.38 234.83,190.88l521.29 364.23c71.87,49.49 203.19,126.38 248.58,194.17 -82.97,39.81 -1047.89,67.29 -1260.72,67.53 -98.51,0.12 -116.02,15.57 -203.21,18.17 -71,2.12 -151.13,-5.44 -221.04,0.34l-631.54 32.59c-98.56,0.02 -115.94,15.56 -203.22,18.16 -302.87,9.03 -568.76,33.51 -869.03,33.51l0 17.02c478.47,0 900.27,17.03 1379.35,17.03l6181.54 0c94.49,0 209.54,-175.01 275.31,-235.56 63.89,-58.82 43.25,-29.82 147.07,-40.26 198.27,-19.93 493.32,6.52 691.7,-23.52 221.85,-33.58 462.17,18.89 686.35,-11.84 101.19,-13.87 218.98,-12.41 345.24,-12.38l340.03 -17.59c539.11,-16.12 1790.26,-35.27 2218.57,-420.92 162.31,-146.14 95.71,-92.28 363.63,-31.53 103.1,23.37 162.69,44.31 279.24,44.31 19.38,-72.57 34.06,-40.91 34.06,-102.17 0,-114.8 -184.86,-225.44 -267.45,-294.52 -141.18,-118.08 -373.19,-379.26 -515.89,-454.77 16.34,61.23 239.01,304.88 285.59,361.51 230.83,280.73 109.06,193.72 -186.59,231.34 -781.08,99.39 -1496.66,234.37 -2268.88,353.59 -786.67,121.43 -1399.91,170.25 -2190.54,59.25 -77.18,-10.83 -181.4,-33.4 -254.46,-35.03 -48.8,209.49 -196.69,274.91 -459.72,272.53 -239.35,-2.16 -481.47,35.7 -715.05,34.22 -220.92,-1.39 -491.71,15.75 -699.31,32.94 -229.62,19.01 -505.82,-7.69 -726.71,22.58l-514.96 29.96c-61.28,1.83 -126.72,-1.22 -188.46,-1.14l-713.22 33.68c-87.69,-16.12 -352.47,-395.59 -426.96,-493.07 -29.38,-38.44 -51.78,-62.62 -82.99,-104.33 -28.85,-38.57 -48.83,-66.43 -80.08,-107.24 -37.6,-49.11 -61.29,-58.51 -75.52,-111.79 40,-59.73 66.91,-72.77 121.59,-116.82l396.74 -318.49c218.08,-164.02 1533.83,-1250.57 1627.33,-1250.57l1644.54 177.57c192.07,27.19 371.03,22.94 564.53,48.51 400.2,52.88 1329.23,79.26 1759.28,79.86 111.3,0.15 164.06,18.37 288.8,17.72l630.29 0c129.66,0.67 185.08,-18.03 306.01,-17.54 108,0.44 215.97,0.17 323.97,0.42 273.72,0.62 678.54,-33.67 929.31,-75.41l406.13 -87.7c67.15,-17.35 75.36,-28.76 129.03,-41.26 -17.21,206.81 -170.35,426.1 -187.32,630.07 184.83,-135.42 732.25,-1200.31 732.25,-1413.41 0,-45.87 -201.37,-243.94 -242.67,-285.24 -206.19,-206.19 -480.54,-485.66 -703.52,-658.79 -307.5,-238.76 -612.31,-482.39 -937.18,-697.62 -383.82,-254.28 -761.64,-508.87 -1176.12,-714.1 -127.17,-62.97 -241.32,-120.56 -363.36,-181.58 -278.43,-139.22 -1682.67,-743.37 -1958.33,-766.31l471.13 244.08c86.22,43.11 152.14,76.08 238.41,119.2 46.94,23.47 83.48,40.56 125.1,62.22l817.17 442.98c387.15,209.69 1898.32,1094.23 2009.42,1260.15zm1345.3 2946.02l-5.09 5.08c0.34,-0.33 6.78,-3.38 5.09,-5.08zm-17.03 -17.02c-1.7,-1.7 -5.07,2.67 -5.08,5.08l5.08 -5.08zm-17.03 -17.03l-5.09 5.07c0.34,-0.33 6.78,-3.38 5.09,-5.07zm-17.03 -17.03l-5.09 5.07c0.34,-0.33 6.78,-3.38 5.09,-5.07zm-17.03 -17.03c-1.7,-1.7 -5.07,2.67 -5.08,5.08l5.08 -5.08zm-12669.62 -2843.86c-19.73,-19.73 -97.07,28.82 -21.26,6.93 2.04,-0.59 50.82,22.63 21.26,-6.93zm-51.09 -17.03c-18.1,-18.1 -64.59,27.03 -18.97,8.85 0.39,-0.15 47.5,19.66 18.97,-8.85zm-34.06 -17.03c-18.1,-18.1 -64.59,27.03 -18.97,8.85 0.39,-0.15 47.5,19.66 18.97,-8.85zm-817.39 -2077.54l68.12 0c-31.84,-20.21 38.03,-19.15 -34.06,-14.05 -36.6,2.59 -14.93,1.47 -34.06,14.05zm-868.48 9672.5l34.06 0c2.5,112.02 355.53,1388.09 418.91,1641.61 19.6,78.42 51.79,175.04 57.91,248.6l-1004.72 0 122.83 -473.18c39.28,-153.03 79.77,-309.36 125.41,-470.6 41,-144.87 243.55,-854.38 245.59,-946.44zm-2043.48 3984.8c215.01,50.08 745.69,0 987.69,0l224.06 -882.82c11.71,-51.98 5.05,-104.87 65.42,-104.87l1549.64 0c58.14,0 49.53,35.16 62.52,90.75 13,55.64 19.05,83.52 32.66,137.63 24.25,96.46 49.67,180.74 71.69,268.9l139.66 524.47 835.48 -16.08c151.52,2.08 142.95,-1.53 108.65,-126.5l-470.75 -1812.32c-73.82,-295.59 -155.13,-605.01 -234.85,-906.1l-891.51 -3399.81c-21.26,-55.58 -16.1,-45.94 -75.65,-60.59 -96.69,-23.79 -541.73,-13.4 -667.76,-13.4 -126.49,0 -105.66,96.89 -172.33,321.51 -107.91,363.57 -207.08,829.18 -315.49,1200.1 -38.32,131.11 -71.59,268.39 -104.71,389.13l-936.45 3593.27c-68.65,267.15 -146,530.72 -207.98,796.74zm-4291.32 -4836.25c0,397.8 -37.42,648.38 119.46,1004.46 68.03,154.41 118.22,248.57 216.08,379.93 232.72,312.41 504.04,468.67 821.46,660.08 351.49,211.95 623.2,287.73 839.05,659.51 25.57,44.05 75.93,153.16 80.94,208.56 29.42,325.32 55.74,542.73 -125.5,775.9 -247.59,318.55 -726.35,249.68 -929.77,-78.23 -51.44,-82.92 -69.72,-186.4 -68.08,-323.59 1.63,-136.21 -17.03,-224.87 -17.03,-374.64l-953.63 -17.03c0,163.18 24.44,601.75 53.03,764.38 106.69,607.06 758.71,1176.94 1309.3,1176.94 394.87,0 537.78,24.55 886.5,-169.3 96.1,-53.42 141.98,-75.22 230.48,-144.16 263.05,-204.89 543.9,-627.72 552.04,-980.57l16.85 -579.17c0,-876.06 -750.34,-1448.69 -1413.03,-1771.39 -71.48,-34.81 -128,-47.82 -190.64,-98.85 -29.32,-23.88 -40.53,-40.8 -70.27,-65.96 -446.45,-377.9 -403.6,-468.29 -403.6,-992.78 0,-464.17 615.91,-766.72 991.99,-344.89 177.89,199.53 148.96,510.16 148.96,787.64l953.62 0c0,-574.9 0.03,-1049.73 -421.44,-1468.77 -343.52,-341.52 -657.59,-472.53 -1179.29,-472.53 -765.39,0 -1447.47,687.36 -1447.47,1464.5zm14593.89 -136.23c0,610.17 -65.01,999.51 315.99,1506.12l131.79 157.7c88.63,106.08 367.31,322.49 489.59,395.92 216.71,130.12 565.75,306.73 729.24,428.73 341.12,254.58 410.94,482.11 410.94,917.33 0,625.36 -744.46,869.3 -1066.29,334.03 -90.48,-150.5 -91.69,-525.4 -91.69,-708.67l-953.63 0c0,195.56 21.89,578.49 60.94,773.49 89.03,444.71 351.66,745.84 708.5,977.37 270.83,175.73 563.82,190.46 882.37,190.46 632.07,0 1215.67,-541.34 1362.9,-1123.34 51.71,-204.39 54.56,-704.41 21.84,-925.53 -94.24,-636.76 -539.59,-1116.74 -1083.45,-1419.82 -144.86,-80.72 -172.45,-113.11 -327.43,-166.41 -120.04,-41.28 -221.61,-128.65 -301.68,-209.2 -377.93,-380.18 -353.34,-441.34 -353.34,-991.95 0,-230.66 251.24,-510.88 578.98,-510.88 218.38,0 395.92,133.57 476.41,272.87 115.63,200.09 85.55,379.08 85.55,680.75 60.95,14.2 80.01,34.06 153.26,34.06l817.39 0 -16.95 -425.81c-5.43,-101.33 -28.29,-305.16 -50.49,-392.26 -106,-415.87 -431.69,-794.89 -806.3,-981.75 -278.18,-138.74 -498.79,-141.49 -863.22,-141.49 -136.01,0 -389.62,107 -493.78,153.32 -172.63,76.76 -428.04,308.98 -535.53,452.15 -139.94,186.39 -281.93,470.45 -281.93,722.79zm-17573.97 -1328.26l-1260.15 0 0 6334.8 2843.86 0 0 -970.66 -1890.23 0 0 -1719.93 1413.41 0 0 -970.66 -1413.41 0 0 -1719.93 1890.23 0 0 -970.65c-546.42,0 -1036.76,17.03 -1583.7,17.03zm-10575.04 6334.8l2843.85 0 0 -970.66 -1890.22 0 0 -1719.93 1413.41 0 0 -970.66 -1413.41 0 0 -1719.93c224.22,0 1248.24,10.9 1418.06,-12.38 573.06,-78.54 472.16,320.77 472.16,-873.13 0,-65.7 -54.25,-53.06 -117.73,-52.56 -146.74,1.13 -434.69,9.62 -553.59,-8.37l-2172.53 -24.21 0 6351.83zm34160.27 -136.23l-1209.07 0 0 -6079.37 1498.56 0c286.86,0 695.31,226.88 898.35,429.91 209.74,209.73 412.88,623.39 412.88,915.39l0 3286.61c0,304.52 -43.61,403.2 -136.44,612.84 -156.05,352.39 -444.83,599.89 -795.03,737.59 -185.03,72.75 -418.16,97.04 -669.27,97.04zm-1498.55 -6300.75l17.03 6215.6c-0.09,113.21 -16.46,340.58 85.15,340.58l1839.13 0c363.67,0 872.53,-358.89 1102.26,-668.77 306.89,-413.98 288.66,-601.26 311.07,-1017.19l17.12 -2315.86c0,-372.63 -17.47,-694.69 -17.03,-1055.81 0.85,-680.85 -542.86,-1311.22 -1181.97,-1491.58 -350.84,-99.01 -1600.29,-58.05 -2036.52,-58.05 -80.47,0 -68.06,32.88 -136.23,51.09zm1719.93 5313.06l-459.79 0 0 -4104c319.2,0 578.84,-49.82 737.31,114.15 55.39,57.3 114.15,172.86 114.15,277.53l0 3354.72c0,119.16 -175.15,357.6 -391.66,357.6zm-749.28 -4206.18l0 4376.47c0,41.2 77.99,119.2 119.2,119.2 413.2,0 815.45,61.04 1068.92,-191.23 123.1,-122.51 242.32,-233.46 242.32,-472.9l0 -3354.72c0,-243.77 -144.7,-417.04 -320.85,-547.63 -192.34,-142.59 -756.99,-163.55 -1003.92,-113.02 -75.12,15.38 -105.66,88.79 -105.66,183.83zm-38076.96 -8156.91l0 17.03c360.17,0 700.42,50.85 1056.36,50.53 108.04,-0.1 141.31,18.92 254.59,17.88l3437.67 189.52c86.48,9.7 149.19,12.66 258.6,13.87l3456.22 187.99c-3.78,-45.48 -199.38,-698.19 -238.41,-698.19l-1805.13 34c-112.51,-0.42 -167.42,12.42 -255.3,17.16 -350.32,18.92 -688.33,-2.07 -1038.94,16.87 -84.57,4.57 -129.99,17.78 -238.21,17.22 -414.35,-2.13 -886.19,33.99 -1294.32,33.95l-1022.64 33.16c-171.54,14.19 -352.3,-17.28 -519.82,8.08l-1540.48 43.22c-98.35,1.22 -128.34,18.55 -237.33,18.11 -90.97,-0.38 -181.9,-0.41 -272.86,-0.41zm32082.73 2877.91c44.75,0 152.63,-166.53 180.15,-211.52l103.93 -188.03c4.15,-11.82 7.02,-19.85 8.45,-33.41 7.65,-72.71 -126.25,-78.91 -258.47,-111.96 -844.95,-211.28 -1715.83,-391.66 -2551.11,-599.28l-1409.41 -327.54c-85.15,-18.73 -216.29,-59.08 -296.75,-60.87l50.03 35.12c282.38,181.91 1476.3,853.29 1777.68,1015.08 236.91,127.19 224.52,140.66 524.69,190.52 210.03,34.89 403.98,70.24 610.65,104.57 186.29,30.95 1092.21,187.32 1260.15,187.32zm-20009.14 1583.7c0,305.39 -105.67,236.81 490.73,309.64l4810.43 604.81c260,34.33 3045.29,396.79 3230.39,396.79l0 -17.03c-103.17,0 -398.19,-63.82 -527.9,-85.15l-3719.51 -656.95c-715.28,-135.26 -1412,-239.12 -2128.64,-374.64 -197.93,-37.43 -1967.14,-364.79 -2138.48,-364.79 0,86.33 -17.03,92.78 -17.03,187.32zm8531.56 1328.26l85.15 0 0 -17.03 -85.15 0 0 17.03zm-18459.48 -4172.12l0 17.03c121.81,0 221.3,12.57 358.15,16.48 84.19,2.41 85,15.73 169.19,18.13 67.74,1.94 133.1,-5.1 200.25,4.1l907.74 45.88c84.08,2.46 85.07,15.65 169.18,18.14 61.03,1.81 127.34,-3.91 187.96,-0.64 331.53,17.87 965.27,69.8 1277.47,67.82 84.59,-0.53 113.03,8.25 172.4,14.92 64.73,7.26 136.8,1.03 202.54,1.81 87.87,1.03 93.75,13.71 169.53,17.79 60.62,3.26 126.93,-2.45 187.96,-0.64 84.07,2.49 85.11,15.63 169.18,18.14 66.59,1.98 138.88,-4.21 204.99,-0.64 75.78,4.08 81.67,16.75 169.53,17.78 478.36,5.62 829.77,50.41 1311.91,50.41 61.64,-116.48 261.98,-322.7 289.5,-425.72l-374.69 -17.09c-148.45,-0.55 -226.09,17.69 -374.54,17.14l-579.12 -0.14c-77.1,4.16 -93.08,17.57 -186.66,17.7 -130.62,0.18 -261.73,-0.02 -392.36,-0.7 -143.91,-0.74 -223.96,17.5 -374.51,17.16 -743.88,-1.69 -1572.69,51.5 -2315.98,51.06 -148.55,-0.09 -244.38,17.97 -374.24,17.43 -130.82,-0.54 -261.64,-0.26 -392.46,-0.8 -129.85,-0.53 -225.68,17.52 -374.24,17.43 -136.23,-0.09 -272.47,-0.01 -408.69,-0.01zm19140.64 868.48c53.49,-35.82 141.18,-215.05 176.02,-283.76 328.61,-648.1 1105.59,-1368.06 1901.53,-1368.06 287.71,0 465.85,-15.06 734.6,82.79 60.56,22.05 130.08,52.63 190.92,81.54 707,335.88 1240.27,1287.37 1494.36,2013.63 17.59,50.29 16.7,66.41 49.32,103.94 -3.95,-176.93 -202.7,-737.14 -274.89,-917.16 -124.26,-309.88 -243.73,-524.76 -419.67,-789.39 -141.76,-213.2 -387.51,-451.89 -599.47,-592.56 -534.79,-354.9 -1251.99,-298.52 -1845.91,-91.56 -120.37,41.95 -259.03,105.08 -361.13,166.77 -120.12,72.58 -349.02,246.75 -436.78,346.56l-125.16 147.31c-296.05,377.93 -378.47,647.98 -483.76,1099.94zm-16330.86 -3848.56l0 17.03c253.85,0 1018.42,70.13 1311.17,85.2l408.82 16.91c74.07,3.81 62.11,13.43 136.15,17.12l2656.56 153.23c37.08,0 886.33,-357.13 936.59,-425.73l-1369.5 26.88c-201.3,30.47 -483.63,-7.16 -678.63,19.56l-1698.3 38.66c-140.06,-0.52 -207.9,18.06 -340.31,17.31 -464.98,-2.66 -893.36,33.83 -1362.55,33.83zm20128.33 1038.77c192.22,0 524.03,51.03 747.81,69.58l757.97 76.46c289.89,41.59 1211.74,102.47 1541.31,127.55 166.06,12.63 329.49,23.48 512.06,32.87 348.39,17.94 688.44,50.05 1056.32,50.57 107.64,0.14 141.55,18.47 254.45,18.01l562.47 -0.51c113.94,-0.59 162.12,14.92 254.77,17.7 88.88,2.65 183.39,-0.84 273.07,-0.5 118.1,0.43 176.76,-14.8 271.86,-17.64 179.52,-5.38 365.77,3.47 546.16,1.24 100.75,-1.25 139.31,-19.03 254.76,-17.71 260.11,2.96 733.78,-70.68 991.47,-132.44 59.01,-14.14 176.8,-30.07 200.56,-88.93 -261.89,61.01 -2551.41,93.8 -2768.55,60.92 -252.91,-38.28 -544.8,18.6 -797.71,-19.68 -121.53,-18.4 -258.62,-7.6 -384.53,-7.13l-3098.68 -136.84c-393.3,-11.65 -800,-50.53 -1175.57,-50.53l0 17.03zm-15547.51 1260.15c92.78,-62.13 268.92,-357.54 584.24,-505.62 562.95,-264.37 1076.86,252.53 1328.48,704.5 62.95,113.07 128.25,244.77 177.02,367.9l158.09 386.85c0,-350.75 -127.43,-914.81 -335.35,-1197.26 -362.2,-491.99 -1025.65,-823.76 -1567.66,-280.02 -148.88,149.36 -296.75,317.29 -344.82,523.65zm-17.03 0c-18.1,18.1 27.02,64.59 8.84,18.98 -0.15,-0.4 19.67,-47.5 -8.84,-18.98zm-17.03 34.06c-1.7,1.7 5.07,2.67 5.08,5.08l-5.08 -5.08zm15479.4 -1311.23l85.15 0 0 -17.03 -85.15 0 0 17.03zm-4393.5 5534.44c17.49,17.49 61.6,-24.5 19.75,-9.19 -0.42,0.15 -48.34,-19.39 -19.75,9.19zm-4291.32 -7271.4c17.49,17.49 61.6,-24.5 19.75,-9.19 -0.42,0.15 -48.34,-19.39 -19.75,9.19zm9638.44 3950.74c17.49,17.49 61.6,-24.5 19.75,-9.19 -0.41,0.15 -48.33,-19.39 -19.75,9.19zm-102.17 1277.18c1.69,1.69 5.07,-7.47 5.07,-5.09l0.01 0.01c-0.34,0.33 -6.78,3.38 -5.08,5.08zm-5159.8 2060.51l5.08 -5.08c-0.34,0.33 -6.77,3.39 -5.08,5.08zm-153.26 -34.06l5.08 -5.08c-0.33,0.33 -6.77,3.39 -5.08,5.08zm5381.18 -3320.67l5.09 -5.08c-0.34,0.34 -6.78,3.39 -5.09,5.08z"/>
 </g>
</svg>
