<?xml version="1.0" encoding="UTF-8"?>
<!DOCTYPE svg PUBLIC "-//W3C//DTD SVG 1.1//EN" "http://www.w3.org/Graphics/SVG/1.1/DTD/svg11.dtd">
<!-- Creator: CorelDRAW -->
<svg xmlns="http://www.w3.org/2000/svg" xml:space="preserve" width="484.802mm" height="155.76mm" version="1.1" style="shape-rendering:geometricPrecision; text-rendering:geometricPrecision; image-rendering:optimizeQuality; fill-rule:evenodd; clip-rule:evenodd"
viewBox="0 0 45235.47 18829.49"
 xmlns:xlink="http://www.w3.org/1999/xlink"
 xmlns:xodm="http://www.corel.com/coreldraw/odm/2003">
 <defs>
  <style type="text/css">
   <![CDATA[
    .fil0 {fill:black}
   ]]>
  </style>
 </defs>
 <g id="Слой_x0020_1">
  <metadata id="CorelCorpID_0Corel-Layer"/>
  <path class="fil0" d="M41219.4 4312.49c65.73,98.14 294.63,281.47 398.55,375.02 72.56,65.33 58.65,70.97 193.28,70.07 362.35,-2.43 674.65,15.77 1037.63,15.77 112.88,0 1753.61,-17.71 1818.87,8.1 33.72,13.32 123.31,103.01 123.31,140.04l0 11406.2c0,614.26 -21.63,1189.48 -16.03,1794.5 3.19,342.55 -237.69,246.46 -839.86,246.46 -13595.28,0 -27190.58,0 -40785.86,0 -120.72,0 -241.46,-0.3 -362.16,0.04l-2107.53 0.77c-143.82,-2.65 -229.63,-97.67 -229.63,-148.94l0 -13233.19c0,-162.19 126,-230.43 230.43,-230.43l3785.62 0c-3.12,-139.51 -112.19,-308.81 -115.22,-444.4l-1711.76 0c-369.07,0 -682.78,16.46 -1053.38,16.46 -308.31,0 -1020.33,-65.52 -1248.26,84.93 -139.46,92.04 -331.82,300.71 -331.82,474.69 0,1232.68 -15.21,13068.52 4.5,13212.23 23.12,168.74 -40.7,404.45 341.52,646.02 176.05,111.26 401.05,66.21 674.44,66.21 658.38,0 1316.73,0 1975.11,0 657.76,0 1287.92,16.46 1958.63,16.46 12146.89,0 24293.78,0 36440.66,0 499.87,0 963.88,-16.46 1448.41,-16.46l1811.18 0.69c302.95,1.53 575.41,-413.16 575.41,-527.37l-23.01 -13374.79c-34.39,-240.79 -119.9,-383.92 -329.22,-510.2 -169.28,-102.12 -134.4,-55.2 -354.66,-73.26 -519.27,-42.6 -1116.01,-16.83 -1663.26,-15.58 -153.9,0.35 -241.07,-16.85 -394.99,-16.5l-839.43 0.02c-159.57,-0.02 -268.54,16.46 -411.48,16.46zm-29050.47 11570.81l938.17 0 0 -3341.22c52.18,60.02 1046.89,2625.2 1149.79,2882.71l166.96 425.59c157.61,0 251.37,16.46 411.47,16.46l378.57 0 0 -6106.36 -954.63 0 -35.46 3212.06c-10.99,-31.18 -26.44,-66.96 -42.12,-106.02l-1065.16 -2687.53c-33.76,-84.41 -151.72,-348.41 -157.56,-418.52 -136.21,0 -206.26,-16.46 -345.63,-16.46l-444.4 0 0 6139.27zm18500.14 -6122.81l-148.13 0c0,331.28 -16.46,605.99 -16.46,938.17l0 5184.65 938.17 0 12.07 -3320.37c1.59,3.1 9.11,17.37 11.18,21.74l310.66 775.64c111.84,279.44 215.78,547.47 326.82,825.34l656.01 1664.73c146.9,0 228.88,16.46 378.57,16.46l411.48 0 0 -6122.81c-271.24,0 -576.84,-10.53 -842.17,13.7 -200.09,18.25 -42.14,91.78 -98.4,592.87 -33.52,298.51 -14.05,2321.78 -14.05,2718.17l-37.73 -93.94c-15.6,-40.81 -29.11,-73.15 -42.21,-105.92l-1067.47 -2701.67c-54.1,-135.13 -107.04,-305.52 -169.33,-423.2 -222.41,0 -385.08,16.46 -608.98,16.46zm-18121.57 -5332.78l40.22 -91.46c14.67,-38.37 22.1,-54.42 36.07,-95.6 52.76,-155.32 144.79,-473.91 220.76,-602.19 99.65,-168.29 307.61,-741.87 395.88,-970.23 42.75,-110.59 40.76,-81.18 155.93,-123.87 137.46,-50.96 250.6,-101.09 391.72,-151.44 274.98,-98.1 531.4,-200.05 810.52,-292.24l1654.28 -534.78c278.62,-85.45 560.25,-165.66 839.28,-247.04l646.94 -176.03c85.66,-22.15 128.43,-54.21 223.45,-56.34 -44.12,60.22 -259.77,115.36 -335.27,142.03 -322.15,113.8 -1062.3,412.45 -1351.01,607.67 -126.1,85.28 -39.99,209.64 37.73,306.33 216.79,269.68 493.03,496.54 789.57,675.28 61.97,37.36 309.11,155.06 325.12,209.05l16.4 156.96c73.68,489.69 161.18,971.33 280.44,1448 34.93,139.62 70.17,266.02 101.87,391.91 109.23,433.75 364.42,1098.69 649.04,1424.8 284.7,326.2 427.48,373.1 865.22,484.43 788.78,200.61 1583.29,395.14 2388.49,557.72 206.4,41.65 1469.81,327.64 1647.47,327.64 -50.14,-31.82 -139.4,-38.89 -194.36,-52.53 -65.45,-16.24 -133.73,-35.36 -210.58,-52.77l-2909.09 -761.31c-273.26,-78.64 -524.93,-158.4 -777.27,-259.66 -340.81,-136.75 -423.61,-142.82 -577.72,-475.68 -308.31,-665.99 -703.89,-2062.16 -884.33,-2786.06l-63.99 -203.54c-39.02,-119.56 97.84,-30.12 298.64,51.19 1141.59,462.21 2872.63,765.88 4082.86,904.26 312.41,35.72 638.52,97.38 956.04,97.38l0 -16.46c-164.52,0 -748.85,-128.22 -909.39,-160.47 -642.83,-129.16 -1960.85,-435.84 -2584.46,-658l-795.01 -274.85c-382.78,-146.66 -759.02,-306.51 -1126.48,-486.5l-509.98 -296.53c-87.43,-57.81 -441.68,-247.17 -477.32,-345.65 39.82,-21.07 54.19,-27.34 94.07,-54.06l668.25 -401.61c214.25,-129.4 110.55,-28.2 565.4,214.27l405.9 203.07c1136.95,530.19 3322.57,909.82 4522.39,1024.38 100.57,9.59 189.88,25.68 279.7,33.01 191.06,15.62 367.98,38.55 557.62,51.37 680.23,45.98 363.32,127.49 1028,-125.31l914.93 -352.42c98.07,-38.97 362.55,-158.36 460.69,-181.22 -104.82,-156.53 -1066.69,-844.15 -1272.62,-965.84 -121.15,-71.59 -224.22,-139.53 -347.27,-212.33 -123.22,-72.89 -243.76,-122.42 -364.74,-194.88 -171.83,-102.9 -381.94,-194.38 -568.65,-270.76 -282.24,-115.48 -575.13,-204.68 -887.54,-248.16l-525.97 -33.65c-115.78,0.6 -163.6,-15.6 -262.7,-17.34 -115.57,-2.02 -164.09,16.66 -263.24,17.9l-543.78 15.82c-65.71,3.15 -193.39,20.51 -251.78,28.03 -408.89,52.66 -804.2,112.34 -1206.26,192.77 -82.26,16.44 -169.95,42.51 -253.76,42.51l0 16.46c160.75,0 312.8,-35.55 462.28,-47.96 91.39,-7.58 136.23,-11.61 227.58,-19.3 60.15,-5.08 170.21,-11.46 241.35,-22 83.02,-12.32 153.28,-2.78 235,-11.91 238.94,-26.65 505.48,-30.51 743.06,-30.51 496.84,0 958.36,44.13 1382.87,114.94 562.25,93.79 1113.92,413.22 1591.19,680.19 169.39,94.74 312.19,182.08 477.25,279.87 270.09,160 532.93,345.53 786.06,530.68 47.31,34.6 75.86,47.85 91.42,106.09l-339.38 121.49c-135.35,44.71 -1010.93,372.3 -1059.65,372.3 -155.99,0 -303.68,-19.39 -453.81,-39.97 -1302.08,-178.46 -2601.33,-330.66 -3874.95,-651.32 -273.5,-68.86 -531.79,-125.03 -800.8,-203.22l-1324.38 -420.29c-62.29,-20.75 -140.39,-54.9 -195.59,-67.76 15.02,-56.21 6.46,-35.72 48.2,-67.01 20.23,-15.15 54.02,-35.1 80.24,-51.43 194.69,-121.32 632.87,-409.15 820.19,-463.64 635.63,-184.86 1458.89,-325.79 2114.94,-436.23 2504.62,-421.64 4468.7,-451.2 6973.7,-98.07 1801.39,253.94 3743.07,727.98 5485.84,1262.43 603.04,184.92 1292.55,405.92 1883.78,634.49 110.44,42.7 201.56,72.63 312.65,115.27 102.21,39.23 213.43,99.35 319.74,108.2 -2.95,-2.56 -7.82,-10.13 -9.26,-7.2l-764.11 -371.57c-933.05,-415.03 -1467.87,-656.51 -2516.38,-1005.89 -795.37,-265.05 -1604.81,-494.64 -2447.65,-663.13 -2472.83,-494.32 -3474.72,-470.45 -5981.55,-470.45 -327.41,0 -636.07,24.22 -939.06,48.48l-1152.23 82.22c-84.2,6.46 -161.96,13.77 -229.76,17.11 -154.87,7.67 -301.61,18.62 -455.9,37.9 -1942.41,242.69 -3768.06,765.98 -5586.26,1343.04l-1843.69 625.2c-152.89,50.31 -602.05,193.65 -693.61,293.94 -72.67,79.63 -134.53,210.46 -176.74,317.04 -91.91,232.05 -154.59,500.91 -206.84,780.7 -55.01,294.7 -122.12,577.87 -122.12,881.88zm23125.17 -1892.81c17.49,17.5 62.42,-26.13 18.33,-8.55 -0.37,0.15 -45.91,-19.02 -18.33,8.55zm-12574.82 1761.13l65.82 0c-30.75,-19.52 36.76,-18.51 -32.9,-13.57 -35.14,2.48 -14.72,2.02 -32.92,13.57zm279.79 3538.73l65.84 0c-30.77,-19.52 36.76,-18.51 -32.92,-13.59 -35.12,2.48 -14.71,2.03 -32.92,13.59zm-19174.95 4526.27c0,-277.94 -23.79,-1522.51 16.46,-1695.3 119.32,0 663.56,16.66 747.13,42.9 185.05,58.11 339.17,234 339.17,467.34l0 724.19c0,180.19 -161.94,365.2 -348.5,425.07l-754.26 35.79zm-921.71 3522.27l921.71 0 0 -2600.56 263.35 0 754.67 1928.19c78.15,211.6 166.83,452.41 265.79,639.45 125.57,0 183.54,16.46 312.73,16.46l329.19 0c129.17,0 187.16,-16.46 312.73,-16.46 -7.91,-94.97 -438.84,-1181.42 -507.87,-1352.04 -45.91,-113.48 -83.32,-216.58 -129.44,-331.43 -45.66,-113.74 -375.77,-943.41 -383.18,-1032.31 236.25,-158.19 422.36,-285.73 592.69,-526.53 270.67,-382.65 246.74,-816.47 246.74,-1283.96 0,-580.89 -227.87,-999.54 -561.78,-1248.73 -164.97,-123.13 -376.64,-239.69 -618.7,-286.56 -327.79,-63.49 -1397.55,-44.79 -1798.63,-44.79l0 6139.27zm33033.58 -13282.57c17.5,17.5 62.44,-26.13 18.34,-8.55 -0.37,0.15 -45.91,-19.02 -18.34,8.55zm3571.65 2057.4c-112.72,153.83 -769.62,305.6 -998.2,367.91 -488.78,133.21 -1227.68,142.31 -1750.48,142.31 -600.28,0 -1116.42,-57.25 -1671.73,-138.79 -146.27,-21.48 -177.54,-10.69 -280.56,-81.53 -77.72,-53.46 -146.16,-92.73 -220.34,-141.77l-455.58 -268.63c-695.27,-388.89 -1519.26,-738.02 -2270.42,-988.48 -1250.84,-417.06 -2527.63,-680.97 -3840.28,-867.07 -107.73,-15.27 -204.36,-31.99 -330.12,-31.99 63.75,40.44 1162.27,273.86 1237.79,292.93 1370.57,345.89 2770.53,760.08 4066.64,1315.52l1059.88 487.27c248.35,115.09 528.88,292 782.49,369.66 593.3,181.67 1801.07,299.76 2415.98,299.76 490.5,0 993.12,-51.45 1386.02,-144.68 304.39,-72.2 567.27,-175.29 845.49,-290.2 307.13,-126.84 236.09,-218.62 562.16,77.18 90.56,82.17 181.63,113.82 280.24,213.54 85.69,86.68 160.45,160.75 246.74,247.04 66.27,66.27 180.7,219.61 267.46,242.77 -7.28,87.37 0.11,17.3 -18.62,63.67 -124.12,307 -470.27,410.94 -761.12,506.23 -274.55,89.95 -592.33,130.59 -882.95,137.52 -79.24,1.9 -74.94,12.93 -147.74,16.87 -164.91,8.9 -495.93,14.82 -637.47,-4.57l-1403.54 -94.26c-112.98,-2.84 -237.75,-25.02 -346.21,-32.34 -1552.28,-104.91 -4237.17,-578.5 -5809.53,-971.68 -395.6,-98.92 -792.33,-189.82 -1183,-314.78l-1091.36 -324.13c655.24,279.19 1328.71,501.26 1996.94,751.76 104.62,39.23 200.72,64.48 305.52,105.96 504.21,199.58 1689.33,531.18 2200.42,646.99 85.17,19.3 261.45,59.47 322.66,88.85 -74.05,110.59 -312.02,298.04 -430.39,392.56l-758.83 673.14c-187.73,174.52 -396.54,331.07 -575.78,510.52 -72.72,72.78 -200.27,153.47 -259.49,234.29 29.73,44.38 172.79,148.25 226.98,184.49l503.84 352.05c69.48,47.83 196.39,122.14 240.27,187.66 -80.19,38.48 -1012.81,65.04 -1218.54,65.28 -95.21,0.11 -112.14,15.04 -196.41,17.56 -68.62,2.05 -146.06,-5.26 -213.64,0.32l-610.42 31.5c-95.27,0.02 -112.06,15.04 -196.41,17.56 -292.74,8.71 -549.73,32.38 -839.95,32.38l0 16.46c462.45,0 870.15,16.46 1333.19,16.46l5974.68 0c91.33,0 202.53,-169.17 266.09,-227.69 61.75,-56.84 41.8,-28.81 142.14,-38.91 191.63,-19.26 476.8,6.31 668.55,-22.73 214.44,-32.45 446.72,18.27 663.4,-11.44 97.8,-13.4 211.64,-11.98 333.68,-11.96l328.65 -17c521.06,-15.58 1730.34,-34.09 2144.33,-406.84 156.87,-141.25 92.5,-89.18 351.45,-30.47 99.65,22.6 157.26,42.83 269.9,42.83 18.72,-70.13 32.92,-39.54 32.92,-98.74 0,-110.96 -178.68,-217.91 -258.5,-284.66 -136.45,-114.13 -360.71,-366.57 -498.63,-439.55 15.81,59.18 231.01,294.66 276.04,349.42 223.1,271.34 105.4,187.23 -180.34,223.6 -754.95,96.05 -1446.58,226.53 -2192.96,341.75 -760.34,117.38 -1353.07,164.56 -2117.23,57.27 -74.59,-10.47 -175.32,-32.28 -245.94,-33.87 -47.18,202.48 -190.1,265.72 -444.35,263.41 -231.33,-2.09 -465.36,34.5 -691.13,33.09 -213.52,-1.34 -475.25,15.23 -675.9,31.84 -221.94,18.36 -488.89,-7.45 -702.4,21.82l-497.72 28.96c-59.23,1.77 -122.47,-1.18 -182.15,-1.1l-689.35 32.55c-84.76,-15.58 -340.68,-382.35 -412.68,-476.56 -28.38,-37.15 -50.05,-60.54 -80.21,-100.85 -27.88,-37.27 -47.19,-64.2 -77.41,-103.65 -36.33,-47.47 -59.23,-56.56 -72.98,-108.05 38.65,-57.74 64.66,-70.33 117.51,-112.92l383.47 -307.82c210.78,-158.53 1482.5,-1208.72 1572.86,-1208.72l1589.51 171.63c185.64,26.28 358.62,22.17 545.64,46.88 386.81,51.11 1284.75,76.61 1700.41,77.18 107.58,0.15 158.57,17.77 279.14,17.13l609.2 0c125.33,0.65 178.89,-17.43 295.78,-16.94 104.37,0.43 208.75,0.17 313.12,0.41 264.56,0.6 655.84,-32.55 898.21,-72.89l392.54 -84.76c64.9,-16.78 72.84,-27.81 124.71,-39.88 -16.63,199.88 -164.65,411.84 -181.05,608.98 178.65,-130.89 707.75,-1160.14 707.75,-1366.11 0,-44.34 -194.64,-235.77 -234.56,-275.69 -199.29,-199.3 -464.45,-469.41 -679.97,-636.75 -297.22,-230.77 -591.83,-466.26 -905.83,-674.27 -370.97,-245.77 -736.16,-491.84 -1136.76,-690.21 -122.9,-60.85 -233.23,-116.52 -351.19,-175.49 -269.12,-134.57 -1626.36,-718.5 -1892.81,-740.67l455.38 235.92c83.32,41.67 147.05,73.53 230.43,115.22 45.37,22.67 80.67,39.19 120.91,60.13l789.83 428.17c374.2,202.66 1834.79,1057.6 1942.19,1217.98zm1300.27 2847.44l-4.91 4.91c0.32,-0.32 6.55,-3.27 4.91,-4.91zm-16.46 -16.46c-1.64,-1.64 -4.89,2.59 -4.91,4.91l4.91 -4.91zm-16.46 -16.46l-4.91 4.91c0.32,-0.32 6.55,-3.27 4.91,-4.91zm-16.46 -16.46l-4.91 4.91c0.32,-0.32 6.55,-3.27 4.91,-4.91zm-16.46 -16.46c-1.64,-1.64 -4.89,2.59 -4.91,4.91l4.91 -4.91zm-12245.63 -2748.68c-19.07,-19.07 -93.83,27.84 -20.55,6.7 1.96,-0.58 49.12,21.87 20.55,-6.7zm-49.38 -16.46c-17.5,-17.5 -62.44,26.13 -18.34,8.55 0.37,-0.15 45.91,19.02 18.34,-8.55zm-32.92 -16.46c-17.5,-17.5 -62.44,26.13 -18.34,8.55 0.37,-0.15 45.91,19.02 18.34,-8.55zm-790.05 -2008.03l65.84 0c-30.77,-19.52 36.76,-18.51 -32.92,-13.57 -35.36,2.5 -14.43,1.42 -32.92,13.57zm-839.41 9348.82l32.92 0c2.41,108.27 343.63,1341.64 404.88,1586.69 18.94,75.78 50.07,169.18 55.98,240.28l-971.1 0 118.72 -457.35c37.98,-147.91 77.11,-299.01 121.22,-454.85 39.62,-140.02 235.4,-825.79 237.37,-914.76zm-1975.11 3851.46c207.81,48.41 720.74,0 954.64,0l216.57 -853.28c11.31,-50.24 4.87,-101.37 63.22,-101.37l1497.78 0c56.21,0 47.89,33.98 60.43,87.71 12.58,53.78 18.42,80.73 31.58,133.04 23.44,93.23 48,174.69 69.29,259.9l134.98 506.92 807.52 -15.54c146.45,2 138.17,-1.47 105.03,-122.27l-455 -1751.67c-71.34,-285.71 -149.93,-584.77 -226.98,-875.78l-861.67 -3286.03c-20.55,-53.73 -15.56,-44.41 -73.12,-58.56 -93.46,-22.99 -523.6,-12.95 -645.42,-12.95 -122.25,0 -102.12,93.64 -166.55,310.75 -104.3,351.39 -200.16,801.43 -304.93,1159.94 -37.04,126.71 -69.2,259.41 -101.22,376.1l-905.12 3473.02c-66.34,258.22 -141.12,512.97 -201.02,770.08zm-4147.73 -4674.41c0,384.48 -36.17,626.67 115.46,970.84 65.76,149.24 114.26,240.25 208.86,367.22 224.93,301.94 487.18,452.99 793.97,637.98 339.73,204.87 602.35,278.11 810.97,637.44 24.73,42.59 73.4,148.04 78.23,201.58 28.44,314.45 53.88,524.57 -121.3,749.95 -239.3,307.88 -702.04,241.31 -898.66,-75.62 -49.73,-80.15 -67.39,-180.18 -65.8,-312.77 1.57,-131.66 -16.46,-217.35 -16.46,-362.11l-921.73 -16.46c0,157.71 23.63,581.6 51.26,738.79 103.12,586.75 733.32,1137.56 1265.49,1137.56 381.66,0 519.8,23.72 856.84,-163.64 92.88,-51.64 137.22,-72.7 222.76,-139.33 254.24,-198.04 525.71,-606.72 533.57,-947.76l16.29 -559.79c0,-846.74 -725.24,-1400.22 -1365.76,-1712.11 -69.08,-33.65 -123.73,-46.22 -184.26,-95.55 -28.35,-23.08 -39.17,-39.43 -67.93,-63.77 -431.51,-365.24 -390.08,-452.61 -390.08,-959.55 0,-448.64 595.3,-741.06 958.81,-333.35 171.93,192.85 143.97,493.09 143.97,761.27l921.71 0c0,-555.66 0.02,-1014.6 -407.34,-1419.61 -332.02,-330.1 -635.59,-456.72 -1139.84,-456.72 -739.78,0 -1399.03,664.35 -1399.03,1415.49zm14105.54 -131.68c0,589.74 -62.83,966.06 305.41,1455.72l127.38 152.43c85.66,102.53 355.02,311.7 473.2,382.67 209.46,125.76 546.82,296.46 704.84,414.38 329.69,246.07 397.19,465.98 397.19,886.64 0,604.42 -719.55,840.21 -1030.61,322.84 -87.45,-145.47 -88.62,-507.81 -88.62,-684.95l-921.71 0c0,189 21.16,559.13 58.9,747.6 86.05,429.83 339.9,720.89 684.8,944.66 261.76,169.86 544.95,184.09 852.85,184.09 610.92,0 1174.98,-523.23 1317.29,-1085.76 49.98,-197.55 52.74,-680.82 21.11,-894.55 -91.09,-615.45 -521.53,-1079.36 -1047.2,-1372.31 -140.02,-78 -166.67,-109.32 -316.46,-160.84 -116.04,-39.9 -214.2,-124.34 -291.58,-202.2 -365.28,-367.46 -341.52,-426.56 -341.52,-958.75 0,-222.95 242.84,-493.78 559.62,-493.78 211.06,0 382.67,129.1 460.47,263.74 111.76,193.39 82.69,366.4 82.69,657.96 58.91,13.73 77.33,32.92 148.13,32.92l790.03 0 -16.38 -411.56c-5.24,-97.94 -27.34,-294.94 -48.8,-379.13 -102.45,-401.95 -417.23,-768.29 -779.32,-948.9 -268.87,-134.1 -482.1,-136.75 -834.33,-136.75 -131.45,0 -376.57,103.42 -477.25,148.19 -166.85,74.18 -413.72,298.64 -517.61,437.01 -135.26,180.16 -272.49,454.7 -272.49,698.61zm-16985.89 -1283.81l-1217.98 0 0 6122.81 2748.68 0 0 -938.18 -1826.97 0 0 -1662.38 1366.11 0 0 -938.17 -1366.11 0 0 -1662.38 1826.97 0 0 -938.17c-528.14,0 -1002.06,16.46 -1530.7,16.46zm-10221.14 6122.81l2748.68 0 0 -938.18 -1826.97 0 0 -1662.38 1366.11 0 0 -938.17 -1366.11 0 0 -1662.38c216.72,0 1206.48,10.53 1370.61,-11.96 553.89,-75.91 456.37,310.02 456.37,-843.91 0,-63.5 -52.44,-51.28 -113.8,-50.82 -141.83,1.1 -420.14,9.31 -535.06,-8.08l-2099.82 -23.4 0 6139.27zm33017.12 -131.68l-1168.6 0 0 -5875.94 1448.41 0c277.27,0 672.05,219.29 868.3,415.53 202.72,202.7 399.06,602.52 399.06,884.76l0 3176.62c0,294.33 -42.14,389.71 -131.86,592.33 -150.84,340.59 -429.94,579.81 -768.42,712.9 -178.85,70.32 -404.17,93.79 -646.88,93.79zm-1448.41 -6089.9l16.46 6007.6c-0.07,109.41 -15.9,329.19 82.3,329.19l1777.59 0c351.49,0 843.33,-346.88 1065.36,-646.39 296.62,-400.14 279.01,-581.14 300.67,-983.16l16.53 -2238.36c0,-360.15 -16.89,-671.44 -16.46,-1020.48 0.82,-658.06 -524.68,-1267.33 -1142.42,-1441.67 -339.1,-95.7 -1546.73,-56.1 -1968.37,-56.1 -77.78,0 -65.78,31.78 -131.68,49.38zm1662.38 5135.25l-444.4 0 0 -3966.65c308.53,0 559.47,-48.17 712.64,110.33 53.54,55.39 110.33,167.08 110.33,268.24l0 3242.46c0,115.16 -169.3,345.63 -378.57,345.63zm-724.19 -4065.41l0 4230c0,39.82 75.37,115.22 115.2,115.22 399.37,0 788.17,59.01 1033.15,-184.82 118.99,-118.41 234.22,-225.65 234.22,-457.07l0 -3242.46c0,-235.62 -139.87,-403.09 -310.12,-529.31 -185.91,-137.81 -731.66,-158.08 -970.34,-109.23 -72.59,14.85 -102.12,85.81 -102.12,177.68zm-36802.76 -7883.95l0 16.46c348.13,0 676.98,49.14 1021.02,48.84 104.41,-0.09 136.58,18.29 246.07,17.28l3322.63 183.18c83.58,9.37 144.2,12.22 249.93,13.4l3340.56 181.71c-3.66,-43.97 -192.7,-674.83 -230.43,-674.83l-1744.71 32.86c-108.76,-0.39 -161.81,12.02 -246.76,16.59 -338.59,18.29 -665.3,-2 -1004.17,16.31 -81.74,4.4 -125.65,17.19 -230.24,16.65 -400.47,-2.07 -856.52,32.84 -1251.01,32.81l-988.42 32.06c-165.79,13.72 -340.5,-16.7 -502.42,7.8l-1488.92 41.78c-95.06,1.18 -124.04,17.93 -229.39,17.5 -87.93,-0.37 -175.81,-0.39 -263.74,-0.39zm31009.12 2781.6c43.26,0 147.52,-160.95 174.13,-204.44l100.45 -181.74c4.01,-11.42 6.77,-19.18 8.16,-32.28 7.39,-70.28 -122.03,-76.27 -249.82,-108.22 -816.66,-204.21 -1658.4,-378.57 -2465.73,-579.23l-1362.25 -316.57c-82.3,-18.1 -209.05,-57.1 -286.81,-58.84l48.35 33.95c272.92,175.83 1426.89,824.74 1718.19,981.12 228.98,122.92 217,135.95 507.12,184.13 203,33.72 390.47,67.89 590.22,101.07 180.05,29.91 1055.66,181.05 1217.98,181.05zm-19339.55 1530.7c0,295.17 -102.13,228.88 474.3,299.27l4649.46 584.57c251.29,33.18 2943.39,383.51 3122.3,383.51l0 -16.46c-99.71,0 -384.85,-61.68 -510.22,-82.3l-3595.05 -634.96c-691.35,-130.74 -1364.75,-231.12 -2057.4,-362.11 -191.32,-36.18 -1901.32,-352.59 -2066.92,-352.59 0,83.45 -16.46,89.69 -16.46,181.05zm8246.06 1283.81l82.3 0 0 -16.46 -82.3 0 0 16.46zm-17841.76 -4032.49l0 16.46c117.73,0 213.9,12.15 346.17,15.92 81.38,2.33 82.17,15.21 163.53,17.52 65.48,1.88 128.65,-4.93 193.56,3.97l877.37 44.34c81.27,2.39 82.22,15.13 163.51,17.54 58.99,1.74 123.09,-3.79 181.67,-0.62 320.44,17.26 932.98,67.46 1234.73,65.54 81.76,-0.5 109.24,7.99 166.63,14.43 62.55,7.02 132.22,1.01 195.76,1.75 84.93,0.99 90.6,13.25 163.85,17.19 58.6,3.15 122.68,-2.37 181.67,-0.62 81.25,2.41 82.26,15.12 163.53,17.54 64.36,1.9 134.23,-4.07 198.13,-0.62 73.25,3.94 78.94,16.18 163.85,17.19 462.36,5.43 802.01,48.72 1268.01,48.72 59.59,-112.58 253.22,-311.91 279.81,-411.48l-362.14 -16.52c-143.49,-0.52 -218.53,17.09 -362.01,16.57l-559.73 -0.13c-74.53,4.01 -89.97,16.98 -180.42,17.09 -126.24,0.19 -252.97,-0.02 -379.22,-0.67 -139.1,-0.71 -216.47,16.93 -361.98,16.59 -718.99,-1.62 -1520.07,49.79 -2238.48,49.36 -143.58,-0.09 -236.2,17.36 -361.71,16.85 -126.45,-0.52 -252.88,-0.26 -379.33,-0.78 -125.52,-0.5 -218.13,16.94 -361.71,16.85 -131.68,-0.07 -263.35,0 -395.03,0zm18500.14 839.41c51.69,-34.62 136.45,-207.85 170.12,-274.27 317.62,-626.41 1068.59,-1322.27 1837.91,-1322.27 278.07,0 450.26,-14.56 710.01,80.02 58.54,21.31 125.74,50.87 184.54,78.81 683.34,324.65 1198.75,1244.29 1444.36,1946.26 17,48.59 16.14,64.18 47.66,100.45 -3.81,-171.01 -195.91,-712.47 -265.68,-886.46 -120.1,-299.52 -235.58,-507.2 -405.62,-762.97 -137.01,-206.08 -374.55,-436.77 -579.42,-572.74 -516.88,-343.02 -1210.08,-288.52 -1784.13,-88.49 -116.35,40.55 -250.36,101.57 -349.04,161.2 -116.11,70.15 -337.34,238.49 -422.16,334.95l-120.98 142.39c-286.14,365.28 -365.8,626.3 -467.56,1063.12zm-15784.38 -3719.76l0 16.46c245.36,0 984.35,67.78 1267.3,82.35l395.14 16.35c71.6,3.68 60.03,12.97 131.6,16.53l2567.66 148.12c35.83,0 856.67,-345.18 905.25,-411.48l-1323.67 25.98c-194.56,29.45 -467.45,-6.92 -655.93,18.9l-1641.46 37.36c-135.37,-0.5 -200.95,17.47 -328.93,16.74 -449.42,-2.58 -863.46,32.69 -1316.96,32.69zm19454.76 1004c185.79,0 506.49,49.32 722.79,67.26l732.59 73.9c280.2,40.2 1171.19,99.05 1489.74,123.28 160.51,12.2 318.46,22.69 494.92,31.78 336.73,17.34 665.39,48.37 1020.97,48.87 104.04,0.13 136.81,17.84 245.94,17.41l543.64 -0.5c110.12,-0.56 156.68,14.43 246.24,17.11 85.92,2.56 177.26,-0.82 263.93,-0.49 114.15,0.41 170.85,-14.31 262.77,-17.06 173.51,-5.19 353.52,3.36 527.88,1.19 97.38,-1.19 134.66,-18.38 246.24,-17.11 251.41,2.86 709.23,-68.32 958.3,-128.02 57.03,-13.66 170.88,-29.06 193.84,-85.95 -253.12,58.97 -2466.03,90.66 -2675.9,58.9 -244.45,-37.01 -526.57,17.97 -771.02,-19.03 -117.46,-17.78 -249.97,-7.33 -371.66,-6.89l-2994.97 -132.27c-380.15,-11.25 -773.24,-48.84 -1136.24,-48.84l0 16.46zm-15027.23 1217.98c89.67,-60.05 259.92,-345.57 564.68,-488.69 544.11,-255.53 1040.82,244.07 1284.04,680.92 60.84,109.3 123.95,236.59 171.09,355.59l152.8 373.9c0,-339.02 -123.17,-884.2 -324.13,-1157.2 -350.07,-475.53 -991.31,-796.19 -1515.2,-270.65 -143.9,144.36 -286.81,306.66 -333.27,506.12zm-16.46 0c-17.5,17.5 26.11,62.44 8.55,18.34 -0.15,-0.37 19.02,-45.91 -8.55,-18.34zm-16.46 32.92c-1.64,1.64 4.89,2.59 4.91,4.91l-4.91 -4.91zm14961.41 -1267.35l82.3 0 0 -16.46 -82.3 0 0 16.46zm-4246.48 5349.24c16.91,16.91 59.55,-23.68 19.09,-8.88 -0.39,0.15 -46.71,-18.75 -19.09,8.88zm-4147.73 -7028.08c16.91,16.91 59.55,-23.68 19.09,-8.88 -0.39,0.15 -46.71,-18.74 -19.09,8.88zm9315.92 3818.54c16.91,16.91 59.53,-23.68 19.09,-8.88 -0.39,0.15 -46.71,-18.75 -19.09,8.88zm-98.76 1234.43c1.64,1.64 4.91,-7.22 4.91,-4.91l0 0c-0.32,0.32 -6.55,3.27 -4.91,4.91zm-4987.14 1991.57l4.91 -4.91c-0.32,0.32 -6.53,3.27 -4.91,4.91zm-148.13 -32.92l4.91 -4.91c-0.32,0.32 -6.53,3.27 -4.91,4.91zm5201.11 -3209.54l4.91 -4.91c-0.32,0.32 -6.55,3.27 -4.91,4.91z"/>
 </g>
</svg>
